<svg xmlns="http://www.w3.org/2000/svg" width="104" height="104" viewBox="0 0 104 104"><g><g><path fill="#0e7dd5" d="M52 0c28.719 0 52 23.281 52 52s-23.281 52-52 52S0 80.719 0 52 23.281 0 52 0z"/></g><g><path fill="#fff" d="M63.511 71H40.49c-3.41 0-5.567-3.588-3.93-6.521l9.265-16.61V32.403h-1.222a1.212 1.212 0 0 1-1.223-1.2c0-.664.548-1.202 1.223-1.202h14.67c.674 0 1.222.538 1.222 1.201 0 .664-.548 1.201-1.222 1.201h-1.223v15.464l9.38 16.59C69.092 67.396 66.928 71 63.512 71zm1.781-5.376c-10.305-18.226-9.688-17-9.688-17.446v-1.201h-1.222a1.212 1.212 0 0 1-1.223-1.202c0-.663.547-1.2 1.223-1.2h1.222v-2.403h-1.385a1.212 1.212 0 0 1-1.223-1.201c0-.664.547-1.202 1.223-1.202h1.385v-2.402h-1.222a1.212 1.212 0 0 1-1.223-1.201c0-.663.547-1.201 1.223-1.201h1.222v-2.563h-7.335v15.776c0 .44.612-.79-9.567 17.456-.745 1.335.24 2.964 1.787 2.964h23.022c1.555 0 2.535-1.641 1.781-2.974z"/></g></g></svg>