<svg xmlns="http://www.w3.org/2000/svg" width="104" height="104" viewBox="0 0 104 104"><g><g><path fill="#0e7dd5" d="M52 0c28.719 0 52 23.281 52 52s-23.281 52-52 52S0 80.719 0 52 23.28 0 52 0z"/></g><g><path fill="#fff" d="M69 47.105c0 5.171-2.704 9.204-5.717 13.22C62.588 61.253 51.475 76 51.475 76L39.717 60.325C36.704 56.31 34 52.276 34 47.105 34 37.673 41.85 30 51.498 30h.074C61.189 30.038 69 37.697 69 47.105zm-2.757 0c0-7.945-6.614-14.41-14.743-14.41h-.07c-8.098.036-14.673 6.487-14.673 14.41 0 4.362 2.347 7.847 5.183 11.627l9.57 12.758c1.553-2.056 8.854-11.83 9.55-12.758 2.836-3.78 5.183-7.264 5.183-11.627zm-4.64 0c0 5.445-4.533 9.875-10.103 9.875-5.57 0-10.102-4.43-10.102-9.875s4.532-9.874 10.102-9.874 10.102 4.43 10.102 9.874zm-2.757 0c0-3.959-3.296-7.18-7.346-7.18-4.05 0-7.345 3.221-7.345 7.18 0 3.96 3.295 7.18 7.345 7.18s7.346-3.22 7.346-7.18z"/></g></g></svg>