<svg xmlns="http://www.w3.org/2000/svg" width="104" height="104" viewBox="0 0 104 104"><g><g><path fill="#0e7dd5" d="M52 0c28.719 0 52 23.281 52 52s-23.281 52-52 52S0 80.719 0 52 23.281 0 52 0z"/></g><g><path fill="#fff" d="M68 66.785C68 70.763 64.766 74 60.79 74c-3.974 0-7.208-3.237-7.208-7.215 0-.949.186-1.855.52-2.685l-13.23-7.646a7.195 7.195 0 0 1-5.664 2.761c-3.975 0-7.21-3.237-7.21-7.215 0-3.979 3.235-7.215 7.21-7.215a7.196 7.196 0 0 1 5.664 2.76l13.23-7.645a7.183 7.183 0 0 1-.52-2.685c0-3.978 3.233-7.215 7.208-7.215S68 33.237 68 37.215c0 3.98-3.234 7.216-7.209 7.216a7.196 7.196 0 0 1-5.664-2.76l-13.23 7.645a7.182 7.182 0 0 1 0 5.368l13.23 7.646a7.195 7.195 0 0 1 5.664-2.761c3.975 0 7.209 3.237 7.209 7.216zm-12.373-29.57c0 2.85 2.317 5.17 5.164 5.17a5.173 5.173 0 0 0 5.165-5.17c0-2.85-2.317-5.169-5.165-5.169a5.173 5.173 0 0 0-5.164 5.17zM40.373 52c0-2.85-2.317-5.17-5.164-5.17A5.173 5.173 0 0 0 30.044 52c0 2.85 2.317 5.17 5.165 5.17A5.173 5.173 0 0 0 40.373 52zm25.583 14.785c0-2.851-2.317-5.17-5.165-5.17a5.173 5.173 0 0 0-5.164 5.17c0 2.85 2.317 5.169 5.164 5.169a5.173 5.173 0 0 0 5.165-5.17zM36.231 49.98c0 .565-.458 1.023-1.022 1.023a.996.996 0 0 0-.995.996 1.023 1.023 0 1 1-2.044 0 3.044 3.044 0 0 1 3.039-3.042c.564 0 1.022.458 1.022 1.023z"/></g></g></svg>