<svg xmlns="http://www.w3.org/2000/svg" width="15" height="15" viewBox="0 0 15 15"><g><g><path fill="#3f88ed" d="M15 4.06v6.88A4.065 4.065 0 0 1 10.94 15H4.06A4.065 4.065 0 0 1 0 10.94V4.06A4.065 4.065 0 0 1 4.06 0h6.88A4.065 4.065 0 0 1 15 4.06zM11.601 7.5a4.106 4.106 0 0 0-4.1-4.101 4.106 4.106 0 0 0-4.102 4.1A4.106 4.106 0 0 0 7.5 11.603 4.106 4.106 0 0 0 11.601 7.5zm1.31-4.346c0-.669-.543-1.212-1.211-1.212a1.213 1.213 0 0 0 0 2.424c.668 0 1.211-.544 1.211-1.212zM10.722 7.5A3.226 3.226 0 0 1 7.5 10.722 3.226 3.226 0 0 1 4.278 7.5 3.226 3.226 0 0 1 7.5 4.278 3.226 3.226 0 0 1 10.722 7.5zm1.31-4.346a.333.333 0 1 1-.666 0 .333.333 0 0 1 .666 0z"/></g></g></svg>