<svg xmlns="http://www.w3.org/2000/svg" width="79" height="79" viewBox="0 0 79 79"><g><g><path fill="#cdd1d5" d="M79 39.499c0 21.78-17.72 39.5-39.5 39.5C17.719 79-.001 61.28-.001 39.5s17.72-39.5 39.5-39.5C61.28-.001 79 17.719 79 39.499zm-5.052 0C73.948 20.504 58.495 5.05 39.5 5.05S5.05 20.504 5.05 39.5c0 18.995 15.455 34.449 34.45 34.449 18.995 0 34.448-15.454 34.448-34.449zM49.307 51.917a2.526 2.526 0 0 1-.904 3.456l-8.524 4.989a2.525 2.525 0 0 1-3.802-2.18v-20.4l-3.041 1.578a2.526 2.526 0 1 1-2.326-4.485l6.73-3.49a2.525 2.525 0 0 1 3.689 2.242v20.149l4.722-2.764a2.526 2.526 0 0 1 3.456.905zm-10.704-31.1a3.49 3.49 0 1 1 0 6.98 3.49 3.49 0 0 1 0-6.98z"/></g></g></svg>