<svg xmlns="http://www.w3.org/2000/svg" width="20" height="11" viewBox="0 0 20 11"><g><g><path fill="#3f88ed" d="M19.894 9.934a1.3 1.3 0 0 0-.068-.125c-.347-.603-1.01-1.342-1.988-2.219l-.021-.02-.01-.01-.011-.01h-.01c-.445-.408-.726-.683-.844-.823-.215-.268-.264-.539-.146-.813.083-.208.396-.646.937-1.315.285-.355.51-.64.677-.854 1.201-1.539 1.722-2.522 1.562-2.95l-.062-.1c-.042-.06-.15-.116-.323-.166-.173-.05-.395-.059-.666-.025l-3 .02a.407.407 0 0 0-.207.005l-.136.03-.052.025-.042.03a.457.457 0 0 0-.114.106.684.684 0 0 0-.104.175c-.327.81-.698 1.563-1.115 2.259a21.14 21.14 0 0 1-.708 1.079 5.215 5.215 0 0 1-.54.672c-.147.144-.279.26-.397.346-.118.088-.208.124-.27.11a7.376 7.376 0 0 1-.178-.04.677.677 0 0 1-.234-.245 1.075 1.075 0 0 1-.12-.392 4.11 4.11 0 0 1-.036-.406 8.196 8.196 0 0 1 .005-.482c.008-.208.01-.348.01-.422 0-.254.006-.53.016-.828l.026-.707c.007-.174.01-.358.01-.553 0-.194-.012-.346-.036-.456a1.515 1.515 0 0 0-.109-.321.544.544 0 0 0-.213-.241 1.225 1.225 0 0 0-.349-.136c-.368-.08-.837-.124-1.406-.13-1.291-.014-2.121.067-2.489.24a1.391 1.391 0 0 0-.395.302c-.125.147-.143.227-.053.24.417.06.712.204.885.432l.063.12c.049.088.097.242.146.462.048.221.08.465.094.733.034.489.034.907 0 1.255-.035.348-.068.619-.1.813a1.579 1.579 0 0 1-.14.471 1.97 1.97 0 0 1-.125.221.171.171 0 0 1-.052.05.805.805 0 0 1-.281.05c-.097 0-.215-.046-.354-.14a2.467 2.467 0 0 1-.432-.386 5.188 5.188 0 0 1-.506-.688A11.966 11.966 0 0 1 5.3 3.133l-.166-.29a25.06 25.06 0 0 1-.427-.819c-.18-.358-.34-.704-.48-1.039a.663.663 0 0 0-.25-.321l-.051-.03a.724.724 0 0 0-.167-.086 1.135 1.135 0 0 0-.24-.065L.667.503c-.29 0-.489.064-.593.191l-.042.06A.314.314 0 0 0 0 .914c0 .074.02.165.062.272.417.944.87 1.853 1.36 2.73.489.877.914 1.583 1.275 2.118.361.535.729 1.04 1.104 1.516.375.475.623.78.744.913.122.134.217.234.287.301l.26.241c.167.16.411.353.734.577.323.224.68.445 1.073.663.392.217.848.394 1.37.532.52.137 1.027.192 1.52.166h1.197c.243-.02.427-.094.552-.221l.041-.05a.65.65 0 0 0 .078-.186.985.985 0 0 0 .037-.276 3.196 3.196 0 0 1 .067-.778 2 2 0 0 1 .178-.522 1.29 1.29 0 0 1 .4-.442.68.68 0 0 1 .084-.035c.166-.053.363-.001.588.156.226.157.438.351.636.582.197.231.435.49.713.778.278.288.52.502.729.642l.208.121c.139.08.32.154.542.22.221.068.416.085.583.051l2.666-.04c.263 0 .468-.042.614-.126.145-.083.232-.175.26-.276.028-.1.03-.214.005-.341a1.228 1.228 0 0 0-.073-.266z"/></g></g></svg>